<svg id="visual" viewBox="0 0 900 600" width="900" height="600" xmlns="http://www.w3.org/2000/svg" xmlns:xlink="http://www.w3.org/1999/xlink" version="1.1"><rect x="0" y="0" width="900" height="600" fill="#ffffff"></rect><g transform="translate(876.4763886343028 61.97659132380949)"><path d="M247.4 -387.7C322.9 -336.5 388 -271.7 400.1 -196.9C412.2 -122.1 371.4 -37.3 320.7 18.7C270 74.7 209.4 101.8 176.4 169.2C143.4 236.6 138.1 344.3 102.7 358.6C67.4 372.9 2.2 293.9 -83.4 273.6C-169 253.3 -275 291.7 -322.7 264.2C-370.4 236.8 -359.9 143.5 -327.7 74.2C-295.4 5 -241.4 -40.3 -230.5 -122.3C-219.5 -204.3 -251.7 -323 -220.5 -394.4C-189.2 -465.8 -94.6 -489.9 -4.3 -483.2C86 -476.4 171.9 -438.9 247.4 -387.7" fill="#f5b0a9"></path></g></svg>