<svg id="visual" viewBox="0 0 900 600" width="900" height="600" xmlns="http://www.w3.org/2000/svg" xmlns:xlink="http://www.w3.org/1999/xlink" version="1.1"><rect x="0" y="0" width="900" height="600" fill="#ffffff"></rect><g transform="translate(4.7090779405779415 594.8055797638063)"><path d="M171.4 -320.1C205.7 -277 205.9 -198 250.7 -138.7C295.4 -79.3 384.7 -39.7 378.8 -3.4C372.8 32.8 271.7 65.6 218.3 109.9C164.8 154.3 159.2 210.1 130.8 235C102.3 259.9 51.2 254 -18.2 285.4C-87.5 316.9 -175 385.8 -227.1 374.5C-279.2 363.3 -295.9 271.9 -322 196.1C-348.1 120.3 -383.5 60.2 -388 -2.6C-392.5 -65.3 -366 -130.7 -325.7 -181.8C-285.3 -232.9 -231.2 -269.7 -174.6 -300C-118 -330.4 -59 -354.2 4.7 -362.4C68.5 -370.6 137 -363.3 171.4 -320.1" fill="#f5b0a9"></path></g></svg>